<svg width="381" height="65" viewBox="0 0 381 65" fill="none" xmlns="http://www.w3.org/2000/svg">
<path fill-rule="evenodd" clip-rule="evenodd" d="M20.6541 36.3203C22.0798 35.6538 22.9908 34.2223 22.9908 32.6485V9.90668C22.9908 8.30136 24.2922 7 25.8975 7C27.5657 7 28.8916 8.40107 28.7997 10.0668L27.8101 28.0083C27.6357 31.1695 30.9907 33.3012 33.7784 31.8004L47.5775 24.3714C49.0829 23.5609 50.9596 24.2093 51.6436 25.7763C52.2839 27.2434 51.6257 28.9526 50.1668 29.6112L31.3543 38.1041C29.9023 38.7596 28.9689 40.2051 28.9689 41.7983V53.4913C28.9689 57.1236 24.559 58.9222 22.0187 56.3259L12.1569 46.2469C10.2037 44.2506 10.8074 40.9233 13.3376 39.7405L20.6541 36.3203ZM25.2824 44.6949C25.2824 41.7086 22.1292 39.7267 19.4383 41.0215C17.0042 42.1928 16.3681 45.4091 18.1731 47.4188C20.6567 50.1839 25.2824 48.4115 25.2824 44.6949Z" fill="#48BB78"/>
<circle cx="36.7348" cy="43.7714" r="4.05316" fill="#48BB78"/>
<path d="M78.0886 46.1296C77.7392 46.1755 77.4015 46.233 77.0754 46.3019C76.7726 46.3709 76.4581 46.4513 76.132 46.5432C75.9923 46.5892 75.8525 46.6236 75.7128 46.6466C75.573 46.6696 75.4216 46.7041 75.2586 46.75C74.8393 46.6581 74.4317 46.5892 74.0358 46.5432C73.6631 46.4973 73.3253 46.4743 73.0226 46.4743L72.4985 46.3364C72.219 46.2445 72.0093 46.1755 71.8696 46.1296C71.7298 46.0606 71.5901 46.0147 71.4503 45.9917C71.3339 45.9457 71.1825 45.9112 70.9961 45.8883C70.8331 45.8653 70.5885 45.8308 70.2624 45.7848C69.8665 45.9457 69.4822 46.0261 69.1095 46.0261C68.8533 46.0261 68.5854 45.9917 68.3059 45.9227C68.0264 45.8308 67.7469 45.6699 67.4674 45.4401C67.1879 45.1873 66.92 44.8541 66.6638 44.4405C66.4076 44.0038 66.1863 43.4523 66 42.7858C66.0699 42.2573 66.1514 41.7977 66.2446 41.407C66.3377 41.0163 66.4309 40.7061 66.5241 40.4763L66.8036 40.166C67.2228 40.0052 67.7003 39.9247 68.236 39.9247C68.7485 39.9247 69.2492 40.0052 69.7384 40.166C70.2275 40.3269 70.7166 40.4993 71.2058 40.6831C71.4154 40.775 71.5668 40.844 71.66 40.8899C71.7531 40.9359 71.823 40.9704 71.8696 40.9933C71.9162 41.0163 71.9744 41.0278 72.0443 41.0278C72.1375 41.0278 72.2889 41.0278 72.4985 41.0278C72.6149 41.0278 72.7198 41.0278 72.8129 41.0278C72.9294 41.0048 73.0458 40.9818 73.1623 40.9589L73.5816 40.9933C73.7446 41.0853 73.9426 41.1312 74.1755 41.1312C74.3386 41.1312 74.5016 41.1082 74.6646 41.0623C74.851 41.0163 75.0373 40.9704 75.2237 40.9244C75.41 40.8555 75.573 40.8095 75.7128 40.7865C75.8525 40.7635 75.9806 40.7291 76.0971 40.6831L76.4465 40.3729C76.6794 40.2809 76.8541 40.1775 76.9706 40.0626C77.1103 39.9477 77.2268 39.8213 77.3199 39.6834C77.4131 39.5226 77.4946 39.3617 77.5645 39.2008C77.6577 39.04 77.7741 38.8676 77.9139 38.6838C78.0303 38.5459 78.1352 38.408 78.2283 38.2701C78.3448 38.1322 78.4612 38.0058 78.5777 37.8909V37.5462C78.9504 36.6959 79.2765 35.8341 79.556 34.9609C79.8355 34.0876 80.08 33.2143 80.2897 32.341C80.4993 31.4678 80.674 30.6175 80.8137 29.7902C80.9768 28.9629 81.1165 28.216 81.233 27.5495C81.1631 27.5495 81.0932 27.5495 81.0234 27.5495C80.9535 27.5266 80.8953 27.5151 80.8487 27.5151C80.1499 27.5151 79.5793 27.5266 79.1367 27.5495C78.6942 27.5725 78.2866 27.607 77.9139 27.653C77.5412 27.6989 77.1452 27.7679 76.726 27.8598C76.33 27.9287 75.8176 28.0206 75.1887 28.1356L74.5948 28.239C74.1522 28.4458 73.7213 28.6411 73.3021 28.825C72.9061 28.9858 72.4868 29.0663 72.0443 29.0663C71.3455 29.0663 70.7399 28.7905 70.2275 28.239C69.6918 27.9172 69.389 27.4576 69.3191 26.8601C69.2027 26.6533 69.1561 26.458 69.1794 26.2741C69.0862 25.9524 69.028 25.6651 69.0047 25.4123C69.0047 25.1366 69.0047 24.8838 69.0047 24.654L69.0396 24.0679H69.5637C69.7034 23.9301 69.7966 23.8266 69.8432 23.7577C69.9131 23.6888 69.9596 23.6083 69.9829 23.5164L70.0878 23.1717L70.4371 23.1372C70.9263 23.0683 71.427 22.9878 71.9395 22.8959C72.4519 22.804 72.976 22.7006 73.5117 22.5857C74.0474 22.4938 74.5016 22.4133 74.8743 22.3444C75.2702 22.2754 75.6429 22.2295 75.9923 22.2065C76.3417 22.1605 76.7027 22.1376 77.0754 22.1376C77.448 22.1146 77.8789 22.1031 78.3681 22.1031C78.5544 22.1031 78.7175 22.1146 78.8572 22.1376C79.0203 22.1376 79.1833 22.1376 79.3463 22.1376C79.4395 22.0226 79.5327 21.9537 79.6258 21.9307C79.719 21.9077 79.7889 21.8963 79.8355 21.8963C79.9985 21.9192 80.115 21.9422 80.1849 21.9652C80.278 21.9882 80.3479 22.0112 80.3945 22.0341C81.1864 21.8963 81.9085 21.8158 82.5606 21.7928C83.2361 21.7469 83.8417 21.7239 84.3774 21.7239C84.6336 21.7239 84.8898 21.7239 85.1461 21.7239C85.4023 21.7239 85.6468 21.7354 85.8798 21.7584H87.2074H88.1507C88.2672 21.7354 88.372 21.7239 88.4652 21.7239C88.5816 21.7239 88.6981 21.7239 88.8146 21.7239C89.0475 21.7239 89.2222 21.7239 89.3386 21.7239C89.4784 21.7239 89.5948 21.7354 89.688 21.7584C89.7812 21.7584 89.8743 21.7699 89.9675 21.7928C90.0607 21.7928 90.1888 21.8043 90.3518 21.8273C90.7478 21.8963 91.1088 21.9537 91.4349 21.9997C91.761 22.0456 92.0871 22.0686 92.4132 22.0686L93.077 22.0341L93.1818 22.4478L93.4963 22.8959C93.5661 23.0338 93.6593 23.1602 93.7758 23.2751C93.8922 23.39 94.0203 23.5049 94.1601 23.6198C94.4396 23.8726 94.7074 24.1943 94.9637 24.585C95.2432 24.9527 95.348 25.4928 95.2781 26.2052L94.9637 26.6188C94.8705 26.6648 94.7773 26.7222 94.6842 26.7912C94.6143 26.8601 94.5328 26.9405 94.4396 27.0325L94.0902 27.3427C93.7874 27.3657 93.5312 27.3887 93.3216 27.4117C93.1119 27.4117 92.879 27.4117 92.6228 27.4117C92.2036 27.4117 91.7726 27.4002 91.3301 27.3772C90.9108 27.3542 90.4683 27.3312 90.0025 27.3082C89.7462 27.2853 89.5483 27.2738 89.4085 27.2738C89.2688 27.2738 89.1406 27.2738 89.0242 27.2738C88.9077 27.2738 88.768 27.2853 88.6049 27.3082C88.4652 27.3082 88.2788 27.3082 88.0459 27.3082C87.813 27.3082 87.6383 27.3082 87.5219 27.3082C87.4287 27.3082 87.2889 27.3197 87.1026 27.3427C87.056 28.0781 86.9628 28.7216 86.8231 29.2731C86.7066 29.8017 86.5552 30.3647 86.3689 30.9622C85.9263 33.2143 85.379 35.3401 84.7268 37.3394C84.0979 39.3387 83.3875 41.1427 82.5956 42.7514C81.8502 43.5327 81.1398 44.2336 80.4644 44.8541C79.7889 45.4516 79.0319 45.8768 78.1934 46.1296H78.0886Z" fill="#4A5568"/>
<path d="M110.127 27.3427C110.15 27.5036 110.15 27.63 110.127 27.7219C110.127 27.7908 110.115 27.8598 110.092 27.9287C110.092 27.9977 110.092 28.0781 110.092 28.17C110.092 28.239 110.115 28.3539 110.162 28.5147C109.673 29.2961 109.102 29.8361 108.45 30.1349C107.821 30.4107 107.134 30.6175 106.388 30.7554C105.643 30.8703 104.874 30.9967 104.082 31.1346C103.314 31.2724 102.545 31.5712 101.777 32.0308C101.474 31.9159 101.194 31.9159 100.938 32.0308C100.705 32.1457 100.356 32.1802 99.8899 32.1342C99.7502 32.2721 99.5755 32.3755 99.3659 32.4445C99.1562 32.4904 98.9466 32.5479 98.737 32.6168C98.8301 32.8236 98.8651 33.042 98.8418 33.2718C98.8418 33.4786 98.8767 33.651 98.9466 33.7888C99.7618 33.8578 100.659 33.8463 101.637 33.7544C102.638 33.6624 103.617 33.605 104.572 33.582C104.595 33.6969 104.583 33.7774 104.537 33.8233C104.49 33.8463 104.478 33.9037 104.502 33.9957C104.665 34.1106 104.828 34.26 104.991 34.4438C105.154 34.6047 105.317 34.7655 105.48 34.9264C105.643 35.0873 105.806 35.2251 105.969 35.3401C106.155 35.432 106.365 35.4664 106.598 35.4435C106.691 35.6273 106.749 35.8341 106.773 36.0639C106.819 36.2708 106.796 36.4891 106.703 36.7189C106.33 36.9717 105.958 37.236 105.585 37.5117C105.212 37.7645 104.816 37.9943 104.397 38.2012C104.001 38.408 103.57 38.5804 103.104 38.7182C102.662 38.8331 102.161 38.8791 101.602 38.8561C101.485 38.8561 101.392 38.8561 101.322 38.8561C101.276 38.8561 101.206 38.8216 101.113 38.7527C100.926 38.8676 100.659 38.9021 100.309 38.8561C99.9831 38.8102 99.7269 38.8446 99.5405 38.9595C99.2843 38.8446 98.9699 38.7987 98.5972 38.8216C98.2478 38.8216 97.9334 38.7757 97.6539 38.6838C97.2812 39.1664 96.9435 39.6834 96.6407 40.235C96.3379 40.7865 96.07 41.3725 95.8371 41.993C96.629 42.1079 97.2812 42.1539 97.7936 42.1309C98.3294 42.1079 98.8301 42.0734 99.296 42.0275C99.7618 41.9585 100.239 41.9011 100.728 41.8551C101.218 41.7862 101.835 41.7632 102.58 41.7862C103.046 41.5334 103.593 41.3725 104.222 41.3036C104.874 41.2117 105.468 41.0738 106.004 40.8899C106.19 40.9589 106.353 41.0853 106.493 41.2691C106.633 41.43 106.761 41.5908 106.878 41.7517C107.017 41.8896 107.157 42.016 107.297 42.1309C107.437 42.2458 107.611 42.2918 107.821 42.2688C107.914 42.3607 107.972 42.4756 107.996 42.6135C108.042 42.7284 108.077 42.8433 108.1 42.9582C108.124 43.0731 108.159 43.1765 108.205 43.2684C108.275 43.3374 108.38 43.3604 108.52 43.3374C108.17 44.0958 107.763 44.6818 107.297 45.0954C106.854 45.4861 106.342 45.7848 105.76 45.9917C105.177 46.1985 104.525 46.3594 103.803 46.4743C103.104 46.5892 102.324 46.7271 101.462 46.8879C101.253 46.9339 101.078 46.9224 100.938 46.8535C100.798 46.8075 100.635 46.7845 100.449 46.7845C99.9132 46.8994 99.2727 47.0028 98.5273 47.0948C97.782 47.1867 97.025 47.2212 96.2564 47.1982C95.4877 47.1752 94.754 47.0718 94.0553 46.8879C93.3565 46.7271 92.7859 46.4283 92.3433 45.9917C92.157 45.8308 92.0289 45.647 91.959 45.4401C91.9124 45.2103 91.761 45.038 91.5048 44.9231C91.4815 44.6243 91.4349 44.2911 91.365 43.9234C91.2952 43.5557 91.2253 43.1765 91.1554 42.7858C91.0855 42.3722 91.0273 41.97 90.9807 41.5794C90.9574 41.1887 90.9807 40.8325 91.0506 40.5107C91.1205 40.166 91.2602 39.8558 91.4699 39.58C91.7028 39.3042 91.7843 39.0055 91.7144 38.6838C91.8309 38.6608 91.9008 38.6033 91.924 38.5114C91.9473 38.3965 92.0405 38.3505 92.2036 38.3735C92.3433 37.9599 92.4947 37.5692 92.6577 37.2015C92.8208 36.8338 92.9838 36.4776 93.1469 36.1329C93.3332 35.7882 93.5079 35.4435 93.671 35.0988C93.8573 34.7311 94.032 34.3289 94.195 33.8923C93.8689 33.5935 93.6244 33.2718 93.4613 32.9271C93.3216 32.5594 93.2168 32.2032 93.1469 31.8585C93.077 31.4908 93.0188 31.1231 92.9722 30.7554C92.9256 30.3647 92.8441 29.974 92.7276 29.5833C92.9605 29.2386 93.24 28.9629 93.5661 28.756C93.9155 28.5262 94.2882 28.3424 94.6842 28.2045C95.0801 28.0666 95.511 27.9517 95.9769 27.8598C96.4427 27.7679 96.9318 27.6644 97.4443 27.5495C98.3759 27.2508 99.2028 27.021 99.9249 26.8601C100.67 26.6993 101.392 26.5729 102.091 26.4809C102.813 26.366 103.558 26.2626 104.327 26.1707C105.096 26.0788 105.969 25.9409 106.947 25.757C107.157 25.9639 107.355 26.0673 107.541 26.0673C107.635 25.8604 107.739 25.803 107.856 25.8949C107.996 25.9639 108.054 25.8949 108.03 25.6881C108.263 26.0788 108.555 26.412 108.904 26.6878C109.277 26.9405 109.684 27.1589 110.127 27.3427Z" fill="#4A5568"/>
<path d="M114.564 43.165C114.308 44.0843 114.075 44.7852 113.865 45.2678C113.679 45.7274 113.388 46.21 112.992 46.7156C112.689 46.6696 112.479 46.7041 112.363 46.819C112.246 46.9339 112.118 47.0373 111.978 47.1292C111.769 47.1752 111.617 47.1752 111.524 47.1292C111.431 47.0833 111.35 47.0258 111.28 46.9569C111.21 46.9109 111.117 46.8535 111 46.7845C110.907 46.7386 110.756 46.7156 110.546 46.7156C110.499 46.5317 110.441 46.3594 110.371 46.1985C110.325 46.0376 110.173 45.9802 109.917 46.0261C109.964 45.8423 109.975 45.6929 109.952 45.578C109.929 45.4401 109.894 45.3252 109.847 45.2333C109.824 45.1184 109.801 45.015 109.777 44.9231C109.754 44.8082 109.766 44.6703 109.812 44.5094C109.696 44.5094 109.603 44.429 109.533 44.2681C109.463 44.1072 109.381 43.9464 109.288 43.7855C109.358 43.3719 109.428 42.9812 109.498 42.6135C109.568 42.2458 109.649 41.9011 109.742 41.5794C109.859 41.2576 109.952 40.9359 110.022 40.6142C110.092 40.2924 110.057 39.9592 109.917 39.6145C110.01 39.6834 110.08 39.6719 110.127 39.58C110.173 39.4651 110.208 39.3272 110.232 39.1664C110.255 38.9825 110.267 38.8102 110.267 38.6493C110.267 38.4654 110.255 38.3161 110.232 38.2012C110.465 37.6037 110.651 36.9947 110.791 36.3742C110.954 35.7307 111.093 35.0988 111.21 34.4783C111.35 33.8578 111.489 33.2488 111.629 32.6513C111.769 32.0538 111.955 31.5022 112.188 30.9967C112.444 30.9507 112.724 30.9852 113.027 31.1001C113.353 31.192 113.551 31.3184 113.621 31.4793C114.226 31.0197 114.762 30.4681 115.228 29.8246C115.694 29.1582 116.171 28.5147 116.66 27.8943C117.149 27.2738 117.685 26.7222 118.267 26.2396C118.873 25.757 119.63 25.4698 120.538 25.3779C121.004 25.7226 121.517 26.0788 122.076 26.4465C122.658 26.7912 123.135 27.2508 123.508 27.8253C123.694 27.9172 123.846 28.0206 123.962 28.1356C124.102 28.2275 124.265 28.3309 124.451 28.4458V28.8595C124.731 29.1122 124.952 29.411 125.115 29.7557C125.302 30.0774 125.465 30.4336 125.604 30.8243C125.744 31.192 125.884 31.5712 126.024 31.9619C126.163 32.3296 126.326 32.6858 126.513 33.0305C126.466 33.1454 126.443 33.2488 126.443 33.3407C126.443 33.4097 126.455 33.4901 126.478 33.582C126.524 33.6739 126.559 33.7659 126.583 33.8578C126.606 33.9497 126.606 34.0761 126.583 34.237C126.513 35.2481 126.175 36.0639 125.569 36.6844C124.987 37.3049 124.277 37.822 123.438 38.2356C122.6 38.6263 121.703 38.9595 120.748 39.2353C119.793 39.5111 118.931 39.8098 118.163 40.1316C118.163 40.2235 118.197 40.2694 118.267 40.2694C118.361 40.2694 118.395 40.3269 118.372 40.4418C118.931 40.7865 119.374 41.0623 119.7 41.2691C120.026 41.4759 120.329 41.6483 120.608 41.7862C120.911 41.9241 121.225 42.0505 121.552 42.1654C121.901 42.2573 122.378 42.3722 122.984 42.5101C123.59 42.648 124.055 42.7629 124.382 42.8548C124.731 42.9237 125.045 42.9927 125.325 43.0616C125.604 43.1076 125.884 43.1535 126.163 43.1995C126.466 43.2225 126.885 43.257 127.421 43.3029C127.631 43.5097 127.805 43.7625 127.945 44.0613C128.108 44.3371 128.213 44.6243 128.26 44.9231C128.306 45.1988 128.318 45.4746 128.295 45.7504C128.271 46.0032 128.19 46.21 128.05 46.3709C128.073 46.4398 128.12 46.4743 128.19 46.4743C128.283 46.4513 128.376 46.4513 128.469 46.4743C128.33 46.5662 128.213 46.6811 128.12 46.819C128.027 46.9569 127.934 47.0948 127.84 47.2326C127.747 47.3705 127.642 47.4854 127.526 47.5774C127.409 47.6923 127.246 47.7612 127.037 47.7842C126.315 48.06 125.406 48.0714 124.312 47.8187C123.217 47.5888 121.831 47.1522 120.154 46.5087C119.315 46.187 118.628 45.9112 118.093 45.6814C117.58 45.4286 117.126 45.1873 116.73 44.9575C116.357 44.7047 116.008 44.4405 115.682 44.1647C115.379 43.8889 115.006 43.5557 114.564 43.165ZM119.56 31.3414C119.304 31.7091 119.013 32.0423 118.687 32.341C118.384 32.6398 118.081 32.95 117.778 33.2718C117.499 33.5705 117.243 33.9152 117.01 34.3059C116.777 34.6736 116.614 35.1102 116.52 35.6158C117.336 35.5239 118.186 35.3056 119.071 34.9609C119.956 34.5932 120.795 34.2485 121.586 33.9267C121.493 33.2143 121.237 32.6398 120.818 32.2032C120.422 31.7665 120.003 31.4793 119.56 31.3414Z" fill="#4A5568"/>
<path d="M133.92 43.165C133.663 44.0843 133.43 44.7852 133.221 45.2678C133.035 45.7274 132.743 46.21 132.347 46.7156C132.045 46.6696 131.835 46.7041 131.719 46.819C131.602 46.9339 131.474 47.0373 131.334 47.1292C131.125 47.1752 130.973 47.1752 130.88 47.1292C130.787 47.0833 130.705 47.0258 130.635 46.9569C130.566 46.9109 130.472 46.8535 130.356 46.7845C130.263 46.7386 130.111 46.7156 129.902 46.7156C129.855 46.5317 129.797 46.3594 129.727 46.1985C129.68 46.0376 129.529 45.9802 129.273 46.0261C129.319 45.8423 129.331 45.6929 129.308 45.578C129.284 45.4401 129.25 45.3252 129.203 45.2333C129.18 45.1184 129.156 45.015 129.133 44.9231C129.11 44.8082 129.121 44.6703 129.168 44.5094C129.052 44.5094 128.958 44.429 128.889 44.2681C128.819 44.1072 128.737 43.9464 128.644 43.7855C128.714 43.3719 128.784 42.9812 128.854 42.6135C128.923 42.2458 129.005 41.9011 129.098 41.5794C129.215 41.2576 129.308 40.9359 129.378 40.6142C129.448 40.2924 129.413 39.9592 129.273 39.6145C129.366 39.6834 129.436 39.6719 129.482 39.58C129.529 39.4651 129.564 39.3272 129.587 39.1664C129.611 38.9825 129.622 38.8102 129.622 38.6493C129.622 38.4654 129.611 38.3161 129.587 38.2012C129.82 37.6037 130.007 36.9947 130.146 36.3742C130.309 35.7307 130.449 35.0988 130.566 34.4783C130.705 33.8578 130.845 33.2488 130.985 32.6513C131.125 32.0538 131.311 31.5022 131.544 30.9967C131.8 30.9507 132.08 30.9852 132.382 31.1001C132.708 31.192 132.906 31.3184 132.976 31.4793C133.582 31.0197 134.118 30.4681 134.583 29.8246C135.049 29.1582 135.527 28.5147 136.016 27.8943C136.505 27.2738 137.041 26.7222 137.623 26.2396C138.229 25.757 138.986 25.4698 139.894 25.3779C140.36 25.7226 140.872 26.0788 141.431 26.4465C142.014 26.7912 142.491 27.2508 142.864 27.8253C143.05 27.9172 143.201 28.0206 143.318 28.1356C143.458 28.2275 143.621 28.3309 143.807 28.4458V28.8595C144.087 29.1122 144.308 29.411 144.471 29.7557C144.657 30.0774 144.82 30.4336 144.96 30.8243C145.1 31.192 145.24 31.5712 145.379 31.9619C145.519 32.3296 145.682 32.6858 145.868 33.0305C145.822 33.1454 145.799 33.2488 145.799 33.3407C145.799 33.4097 145.81 33.4901 145.833 33.582C145.88 33.6739 145.915 33.7659 145.938 33.8578C145.962 33.9497 145.962 34.0761 145.938 34.237C145.868 35.2481 145.531 36.0639 144.925 36.6844C144.343 37.3049 143.632 37.822 142.794 38.2356C141.955 38.6263 141.059 38.9595 140.104 39.2353C139.149 39.5111 138.287 39.8098 137.518 40.1316C137.518 40.2235 137.553 40.2694 137.623 40.2694C137.716 40.2694 137.751 40.3269 137.728 40.4418C138.287 40.7865 138.729 41.0623 139.056 41.2691C139.382 41.4759 139.684 41.6483 139.964 41.7862C140.267 41.9241 140.581 42.0505 140.907 42.1654C141.257 42.2573 141.734 42.3722 142.34 42.5101C142.945 42.648 143.411 42.7629 143.737 42.8548C144.087 42.9237 144.401 42.9927 144.681 43.0616C144.96 43.1076 145.24 43.1535 145.519 43.1995C145.822 43.2225 146.241 43.257 146.777 43.3029C146.986 43.5097 147.161 43.7625 147.301 44.0613C147.464 44.3371 147.569 44.6243 147.615 44.9231C147.662 45.1988 147.674 45.4746 147.65 45.7504C147.627 46.0032 147.545 46.21 147.406 46.3709C147.429 46.4398 147.476 46.4743 147.545 46.4743C147.639 46.4513 147.732 46.4513 147.825 46.4743C147.685 46.5662 147.569 46.6811 147.476 46.819C147.382 46.9569 147.289 47.0948 147.196 47.2326C147.103 47.3705 146.998 47.4854 146.882 47.5774C146.765 47.6923 146.602 47.7612 146.392 47.7842C145.67 48.06 144.762 48.0714 143.667 47.8187C142.573 47.5888 141.187 47.1522 139.51 46.5087C138.671 46.187 137.984 45.9112 137.448 45.6814C136.936 45.4286 136.482 45.1873 136.086 44.9575C135.713 44.7047 135.364 44.4405 135.038 44.1647C134.735 43.8889 134.362 43.5557 133.92 43.165ZM138.916 31.3414C138.66 31.7091 138.368 32.0423 138.042 32.341C137.74 32.6398 137.437 32.95 137.134 33.2718C136.854 33.5705 136.598 33.9152 136.365 34.3059C136.132 34.6736 135.969 35.1102 135.876 35.6158C136.691 35.5239 137.542 35.3056 138.427 34.9609C139.312 34.5932 140.15 34.2485 140.942 33.9267C140.849 33.2143 140.593 32.6398 140.174 32.2032C139.778 31.7665 139.358 31.4793 138.916 31.3414Z" fill="#4A5568"/>
<path d="M155.057 44.3371C155.174 45.0265 155.127 45.5665 154.917 45.9572C154.731 46.3479 154.452 46.6351 154.079 46.819C153.729 47.0258 153.322 47.1407 152.856 47.1637C152.39 47.1867 151.948 47.1637 151.528 47.0948C151.295 46.773 151.086 46.3709 150.9 45.8883C150.713 45.4057 150.538 44.9116 150.375 44.406C150.212 43.8774 150.061 43.3604 149.921 42.8548C149.805 42.3492 149.7 41.9011 149.607 41.5104C149.723 41.2346 149.793 40.9244 149.816 40.5797C149.863 40.212 149.886 39.8443 149.886 39.4766C149.91 39.1089 149.921 38.7412 149.921 38.3735C149.945 37.9828 149.979 37.6152 150.026 37.2704C150.189 36.3052 150.422 35.386 150.725 34.5127C151.051 33.6395 151.307 32.7317 151.493 31.7895C151.54 31.5827 151.517 31.3873 151.424 31.2035C151.354 31.0197 151.342 30.8473 151.389 30.6864C151.412 30.5945 151.482 30.5371 151.598 30.5141C151.715 30.4681 151.785 30.3877 151.808 30.2728C151.878 30.02 151.889 29.8132 151.843 29.6523C151.82 29.4914 151.866 29.2961 151.983 29.0663C152.099 28.8824 152.239 28.6182 152.402 28.2734C152.588 27.9057 152.658 27.5266 152.611 27.1359C152.821 26.998 153.019 26.8371 153.205 26.6533C153.392 26.4694 153.578 26.3086 153.764 26.1707C153.974 26.0098 154.195 25.8719 154.428 25.757C154.684 25.6421 154.987 25.5847 155.337 25.5847C155.523 25.8145 155.639 26.0673 155.686 26.343C155.756 26.6188 155.814 26.8946 155.861 27.1704C155.931 27.4461 156.024 27.7104 156.14 27.9632C156.257 28.193 156.455 28.3769 156.734 28.5147C156.734 28.6986 156.734 28.9284 156.734 29.2042C156.734 29.4799 156.746 29.7557 156.769 30.0315C156.792 30.2843 156.839 30.5256 156.909 30.7554C157.002 30.9622 157.142 31.1001 157.328 31.169C156.909 32.2721 156.513 33.3637 156.14 34.4438C155.791 35.5239 155.5 36.6155 155.267 37.7186C155.034 38.7987 154.882 39.8903 154.813 40.9933C154.766 42.0964 154.848 43.211 155.057 44.3371Z" fill="#4A5568"/>
<path d="M173.644 46.819C173.272 46.842 172.806 46.8305 172.247 46.7845C171.711 46.7386 171.21 46.819 170.744 47.0258C169.51 46.9799 168.252 46.8305 166.971 46.5777C165.69 46.3249 164.514 46.0147 163.442 45.647C163.209 45.3942 162.976 45.1644 162.744 44.9575C162.511 44.7277 162.196 44.5669 161.8 44.4749C161.241 44.0383 160.787 43.5097 160.438 42.8893C160.088 42.2458 159.809 41.5679 159.599 40.8555C159.389 40.143 159.25 39.4192 159.18 38.6838C159.11 37.9254 159.087 37.2015 159.11 36.5121C159.459 35.4779 159.948 34.5932 160.577 33.8578C161.23 33.0994 161.893 32.3525 162.569 31.6172C162.872 31.4793 163.093 31.3414 163.233 31.2035C163.396 31.0426 163.559 30.9047 163.722 30.7898C163.908 30.652 164.083 30.5256 164.246 30.4107C164.432 30.2728 164.595 30.1119 164.735 29.9281C165.224 29.8132 165.643 29.6523 165.993 29.4455C166.365 29.2157 166.726 28.9858 167.076 28.756C167.425 28.5032 167.786 28.2734 168.159 28.0666C168.532 27.8598 168.962 27.6989 169.452 27.584C169.638 27.3772 169.859 27.2163 170.115 27.1014C170.372 26.9635 170.628 26.8371 170.884 26.7222C171.164 26.5843 171.42 26.4465 171.653 26.3086C171.909 26.1707 172.107 25.9868 172.247 25.757C172.363 25.9409 172.526 26.0098 172.736 25.9639C172.945 25.8949 173.143 25.826 173.33 25.757C173.446 25.7341 173.539 25.757 173.609 25.826C173.702 25.8949 173.784 25.9639 173.854 26.0328C173.924 26.1017 173.982 26.1477 174.029 26.1707C174.098 26.1707 174.157 26.1132 174.203 25.9983C174.32 25.9983 174.355 26.0558 174.308 26.1707C174.261 26.2856 174.226 26.366 174.203 26.412C174.39 26.389 174.541 26.435 174.657 26.5499C174.797 26.6418 175.007 26.6993 175.286 26.7222C175.379 26.8371 175.403 26.9291 175.356 26.998C175.31 27.044 175.286 27.1359 175.286 27.2738C175.985 27.4806 176.428 27.8138 176.614 28.2734C176.8 28.7101 176.812 29.1697 176.649 29.6523C176.486 30.1349 176.195 30.583 175.775 30.9967C175.356 31.4103 174.902 31.6861 174.413 31.824C173.295 32.1227 172.235 32.456 171.233 32.8236C170.255 33.1684 169.452 33.6854 168.823 34.3749C168.264 34.5357 167.763 34.754 167.32 35.0298C166.901 35.2826 166.494 35.5813 166.098 35.9261C165.725 36.2478 165.364 36.5925 165.014 36.9602C164.688 37.3049 164.339 37.6496 163.966 37.9943C163.99 38.3161 163.931 38.5689 163.792 38.7527C163.675 38.9136 163.559 39.0859 163.442 39.2698C163.489 39.6145 163.57 39.9247 163.687 40.2005C163.803 40.4533 163.931 40.7061 164.071 40.9589C165.608 41.4185 167.239 41.7057 168.962 41.8207C170.709 41.9356 172.456 42.0045 174.203 42.0275C174.366 42.2573 174.553 42.4756 174.762 42.6824C174.995 42.8663 175.205 43.0731 175.391 43.3029C175.577 43.5097 175.729 43.751 175.845 44.0268C175.962 44.2796 175.985 44.6013 175.915 44.992C175.589 45.3367 175.228 45.6585 174.832 45.9572C174.436 46.233 174.04 46.5202 173.644 46.819Z" fill="#4A5568"/>
<path d="M192.72 45.4746C192.627 45.3827 192.546 45.2793 192.476 45.1644C192.406 45.0265 192.348 44.8541 192.301 44.6473C191.975 44.2566 191.719 43.8085 191.532 43.3029C191.346 42.7973 191.218 42.2803 191.148 41.7517C191.078 41.2002 191.067 40.6486 191.113 40.0971C191.16 39.5455 191.241 39.0285 191.358 38.5459C191.428 38.3161 191.486 38.0748 191.532 37.822C191.649 37.3853 191.765 36.9602 191.882 36.5465C191.998 36.1099 192.173 35.7537 192.406 35.4779C192.313 35.2251 192.324 34.9494 192.441 34.6506C192.557 34.3519 192.674 34.0761 192.79 33.8233C192.837 33.7544 192.872 33.6969 192.895 33.651C192.918 33.582 192.942 33.5246 192.965 33.4786C193.244 32.6743 193.512 31.9044 193.769 31.169C194.048 30.4107 194.316 29.6868 194.572 28.9973C195.038 27.7334 195.48 26.4924 195.9 25.2744C196.342 24.0565 196.738 22.758 197.088 21.3792C197.274 21.2413 197.437 21.1494 197.577 21.1034C197.623 21.0804 197.682 21.0575 197.751 21.0345C197.821 21.0115 197.903 21 197.996 21C198.485 21.2528 199.056 21.4941 199.708 21.7239C200.383 21.9307 200.954 22.0341 201.42 22.0341L202.014 22.5512C202.317 22.8959 202.573 23.2636 202.783 23.6543C203.015 24.022 203.085 24.5046 202.992 25.1021C202.852 25.3089 202.736 25.4353 202.643 25.4813C202.503 26.0098 202.352 26.4809 202.189 26.8946C202.026 27.2853 201.863 27.6644 201.699 28.0321C201.513 28.4458 201.338 28.8595 201.175 29.2731C201.012 29.6868 200.873 30.1923 200.756 30.7898C200.616 30.9507 200.523 31.0886 200.477 31.2035C200.453 31.3184 200.418 31.4333 200.372 31.5482C200.325 31.6861 200.267 31.8355 200.197 31.9963C200.127 32.1342 200.022 32.2606 199.883 32.3755C199.79 33.0879 199.65 33.6739 199.463 34.1336C199.277 34.5702 199.091 35.0068 198.904 35.4435C198.578 36.2478 198.276 37.0521 197.996 37.8565C197.717 38.6378 197.553 39.5341 197.507 40.5452C197.786 40.4763 198.043 40.4418 198.276 40.4418C198.578 40.4418 198.869 40.4878 199.149 40.5797C199.987 40.166 200.896 39.9132 201.874 39.8213C202.876 39.7294 203.866 39.6719 204.844 39.649C205.659 39.649 206.416 39.6145 207.115 39.5455C207.348 39.7064 207.499 39.7983 207.569 39.8213C207.639 39.8213 207.755 39.8213 207.918 39.8213C207.988 39.8213 208.058 39.8213 208.128 39.8213C208.198 39.8213 208.291 39.8328 208.408 39.8558C208.734 40.1775 209.048 40.4073 209.351 40.5452C209.654 40.6601 209.98 40.775 210.329 40.8899C210.632 41.0048 210.923 41.1312 211.203 41.2691C211.505 41.384 211.797 41.5449 212.076 41.7517L212.391 43.5097C212.577 43.7625 212.658 43.9349 212.635 44.0268C212.635 44.2107 212.588 44.3715 212.495 44.5094L212.565 44.9575C212.123 45.0495 211.832 45.1529 211.692 45.2678C211.552 45.3597 211.401 45.4861 211.238 45.647C210.981 45.6699 210.737 45.6814 210.504 45.6814C210.038 45.6814 209.561 45.7504 209.071 45.8883C208.373 45.6355 207.604 45.5091 206.765 45.5091C206.439 45.5091 206.102 45.5206 205.752 45.5435C205.426 45.5665 205.1 45.601 204.774 45.647C204.425 45.6929 204.075 45.7389 203.726 45.7848C203.376 45.8078 203.027 45.8193 202.678 45.8193C202.398 45.8653 202.2 45.8998 202.084 45.9227C201.967 45.9457 201.851 45.9802 201.734 46.0261C200.942 46.2789 200.081 46.5317 199.149 46.7845C198.241 47.0373 197.321 47.1637 196.389 47.1637C195.015 47.1637 193.908 46.819 193.07 46.1296C192.977 45.9227 192.907 45.7848 192.86 45.7159C192.814 45.647 192.767 45.5665 192.72 45.4746Z" fill="#4A5568"/>
<path d="M223.466 37.7186C223.303 37.8565 223.163 38.0288 223.047 38.2356C222.93 38.4195 222.814 38.6148 222.697 38.8216C222.581 39.0744 222.453 39.3157 222.313 39.5455C222.173 39.7754 221.998 39.9822 221.789 40.166C221.672 40.5107 221.556 40.7865 221.439 40.9933C221.323 41.1772 221.137 41.3955 220.88 41.6483C220.648 42.5675 220.1 43.5672 219.238 44.6473C219.215 44.8541 219.145 45.061 219.029 45.2678C218.936 45.4516 218.831 45.6355 218.714 45.8193C218.668 45.8883 218.621 45.9687 218.575 46.0606C218.528 46.1296 218.493 46.187 218.47 46.233L218.4 46.5777C218.283 46.7615 218.155 46.9224 218.016 47.0603C217.876 47.1982 217.748 47.3246 217.631 47.4395C217.585 47.5084 217.503 47.6003 217.387 47.7152L216.863 47.9221C215.162 47.6923 214.126 46.796 213.753 45.2333L213.788 44.8886C213.835 44.7737 213.87 44.6588 213.893 44.5439C213.939 44.406 213.986 44.2681 214.033 44.1302C214.126 43.8085 214.231 43.4868 214.347 43.165C214.487 42.8433 214.685 42.556 214.941 42.3032C214.988 42.1424 215.092 41.8896 215.255 41.5449C215.418 41.1772 215.698 40.6371 216.094 39.9247C216.42 39.3732 216.676 38.9366 216.863 38.6148C217.049 38.2931 217.2 38.0403 217.317 37.8565C217.084 37.4888 216.804 37.1555 216.478 36.8568C216.175 36.2823 215.908 35.7307 215.675 35.2022C215.465 34.6736 215.302 34.2025 215.186 33.7888C215.162 33.4901 215.127 33.2373 215.081 33.0305C215.034 32.8236 214.988 32.6053 214.941 32.3755C214.871 32.1227 214.813 31.8699 214.766 31.6172C214.72 31.3644 214.696 31.1001 214.696 30.8243C214.58 30.6634 214.51 30.5026 214.487 30.3417L214.557 29.997C214.627 29.8361 214.638 29.6293 214.592 29.3765C214.545 29.1007 214.487 28.825 214.417 28.5492C214.37 28.3194 214.312 28.0666 214.242 27.7908C214.196 27.5151 214.184 27.2393 214.207 26.9635C214.231 26.6878 214.3 26.435 214.417 26.2052C214.557 25.9524 214.778 25.7341 215.081 25.5502L215.675 25.5157C215.884 25.6306 216.082 25.7455 216.269 25.8604C216.478 25.9524 216.676 26.0558 216.863 26.1707C217.119 26.2856 217.363 26.4005 217.596 26.5154C217.829 26.6303 218.074 26.7797 218.33 26.9635L218.575 27.4461L219.029 27.8253V28.2045C219.052 28.2964 219.064 28.4228 219.064 28.5837C219.064 28.8824 219.11 29.0663 219.203 29.1352L219.343 29.5489C219.343 29.8706 219.378 30.1808 219.448 30.4796C219.518 30.7554 219.588 31.0197 219.658 31.2724C219.728 31.5252 219.797 31.7895 219.867 32.0653C219.937 32.341 219.949 32.6398 219.902 32.9615C220.042 32.8926 220.158 32.8122 220.252 32.7202C220.298 32.6743 220.345 32.6398 220.391 32.6168C220.438 32.5938 220.484 32.5594 220.531 32.5134L222.592 29.7557L222.523 29.411L223.256 28.7216C223.443 28.5377 223.617 28.3654 223.78 28.2045C223.967 28.0436 224.118 27.8713 224.235 27.6874L224.619 27.4117C225.364 26.2626 226.424 25.5502 227.798 25.2744L228.287 25.2055L228.427 25.6536C228.52 25.9064 228.707 26.1362 228.986 26.343C229.289 26.5499 229.603 26.7452 229.929 26.9291L230.244 27.1359C230.36 27.3657 230.419 27.5381 230.419 27.653C230.419 27.7679 230.407 27.8713 230.384 27.9632L230.523 28.3079C230.337 28.8595 230.104 29.2616 229.825 29.5144C229.568 29.7672 229.312 29.997 229.056 30.2038C228.846 30.3877 228.648 30.56 228.462 30.7209C228.299 30.8588 228.171 31.0426 228.078 31.2724L227.833 31.5482C227.344 31.824 227.03 32.1917 226.89 32.6513L226.785 33.0649H226.366C226.342 33.0649 226.284 33.1109 226.191 33.2028C226.121 33.2718 226.005 33.4671 225.842 33.7888C225.679 34.0187 225.562 34.168 225.492 34.237C225.422 34.3059 225.364 34.3634 225.318 34.4093C225.294 34.5012 225.259 34.5932 225.213 34.6851C225.189 34.754 225.155 34.846 225.108 34.9609C224.805 35.2596 224.619 35.4894 224.549 35.6503C224.479 35.7882 224.398 35.949 224.304 36.1329C224.211 36.3167 224.118 36.5006 224.025 36.6844C223.955 36.8453 223.827 37.0177 223.641 37.2015L223.466 37.7186Z" fill="#4A5568"/>
<path d="M233.773 40.4763C233.563 40.5222 233.412 40.6486 233.318 40.8555C233.225 41.0393 233.132 41.2346 233.039 41.4415C232.969 41.6483 232.888 41.8436 232.794 42.0275C232.724 42.1883 232.608 42.2688 232.445 42.2688C232.422 42.4526 232.352 42.6135 232.235 42.7514C232.142 42.8893 232.049 43.0386 231.956 43.1995C231.863 43.3374 231.793 43.4983 231.746 43.6821C231.7 43.843 231.723 44.0383 231.816 44.2681C231.63 44.406 231.513 44.6013 231.467 44.8541C231.42 45.1069 231.362 45.3482 231.292 45.578C231.245 45.8078 231.152 46.0032 231.013 46.164C230.873 46.3249 230.617 46.3938 230.244 46.3709C230.174 46.4628 230.162 46.5202 230.209 46.5432C230.256 46.5662 230.29 46.6466 230.314 46.7845C230.058 46.7386 229.86 46.75 229.72 46.819C229.603 46.9109 229.452 46.9684 229.266 46.9913C228.823 46.8535 228.45 46.6122 228.148 46.2674C227.868 45.9227 227.612 45.5435 227.379 45.1299C227.169 44.6933 226.971 44.2566 226.785 43.82C226.622 43.3833 226.459 43.0042 226.296 42.6824C226.366 42.4296 226.377 42.1883 226.331 41.9585C226.284 41.7057 226.203 41.4989 226.086 41.3381C227.228 38.948 228.474 36.3972 229.825 33.6854C231.176 30.9737 232.457 28.2964 233.668 25.6536C234.204 25.8604 234.728 26.1017 235.24 26.3775C235.776 26.6303 236.253 26.9291 236.672 27.2738C237.115 27.6185 237.488 28.0206 237.79 28.4803C238.093 28.9169 238.291 29.411 238.384 29.9625C238.338 30.1004 238.28 30.1579 238.21 30.1349C238.163 30.0889 238.117 30.1004 238.07 30.1694C238.163 30.2843 238.21 30.3647 238.21 30.4107C238.233 30.4566 238.233 30.5026 238.21 30.5485C238.21 30.5945 238.21 30.6634 238.21 30.7554C238.21 30.8243 238.245 30.9277 238.315 31.0656C238.221 31.0426 238.152 31.0541 238.105 31.1001C238.082 31.146 238.012 31.146 237.895 31.1001C237.988 31.3529 238.012 31.5597 237.965 31.7206C237.942 31.8814 237.895 32.0308 237.825 32.1687C237.756 32.2836 237.697 32.4215 237.651 32.5823C237.604 32.7202 237.616 32.9041 237.686 33.1339C237.616 33.1339 237.558 33.1569 237.511 33.2028C237.488 33.2258 237.464 33.2603 237.441 33.3062C237.418 33.3292 237.383 33.3637 237.336 33.4097C237.313 33.4326 237.266 33.4326 237.197 33.4097C237.266 33.9152 237.29 34.4208 237.266 34.9264C237.243 35.432 237.22 35.949 237.197 36.4776C237.197 36.9832 237.208 37.5232 237.231 38.0978C237.255 38.6493 237.336 39.2238 237.476 39.8213C238.315 39.3387 238.978 38.7182 239.468 37.9599C239.98 37.2015 240.388 36.3512 240.69 35.409C241.016 34.4668 241.261 33.4556 241.424 32.3755C241.587 31.2954 241.762 30.1923 241.948 29.0663C242.158 28.8595 242.321 28.6067 242.437 28.3079C242.554 28.0092 242.659 27.6989 242.752 27.3772C242.845 27.0325 242.938 26.6993 243.031 26.3775C243.124 26.0328 243.241 25.7226 243.381 25.4468C243.73 25.4928 244.021 25.6077 244.254 25.7915C244.51 25.9524 244.743 26.1362 244.953 26.343C245.162 26.5269 245.384 26.7107 245.617 26.8946C245.85 27.0555 246.141 27.1589 246.49 27.2048C246.77 27.5955 247.026 27.9747 247.259 28.3424C247.492 28.7101 247.643 29.1007 247.713 29.5144C247.596 29.6983 247.503 29.9051 247.433 30.1349C247.387 30.3647 247.329 30.5945 247.259 30.8243C247.189 31.0541 247.096 31.2724 246.979 31.4793C246.863 31.6631 246.7 31.824 246.49 31.9619C246.42 32.5594 246.327 33.1109 246.211 33.6165C246.117 34.0991 246.013 34.5817 245.896 35.0643C245.803 35.5469 245.721 36.0525 245.652 36.581C245.582 37.0866 245.558 37.6496 245.582 38.2701C245.395 38.7987 245.197 39.3617 244.988 39.9592C244.778 40.5567 244.615 41.0968 244.499 41.5794C244.126 41.8781 243.835 42.2343 243.625 42.648C243.416 43.0616 243.194 43.4753 242.961 43.8889C242.868 43.9809 242.81 44.0038 242.787 43.9579C242.763 43.9119 242.682 43.8774 242.542 43.8545C242.565 43.9464 242.565 44.0153 242.542 44.0613C242.519 44.1072 242.484 44.1532 242.437 44.1992C242.414 44.2221 242.391 44.2681 242.367 44.3371C242.367 44.406 242.391 44.4979 242.437 44.6128C242.111 44.7507 241.82 44.946 241.564 45.1988C241.308 45.4516 241.028 45.6814 240.725 45.8883C240.446 46.0951 240.096 46.233 239.677 46.3019C239.281 46.3709 238.757 46.2904 238.105 46.0606C237.15 45.3712 236.3 44.5784 235.554 43.6821C234.832 42.7858 234.238 41.7172 233.773 40.4763Z" fill="#4A5568"/>
<path d="M247.364 31.238C247.527 30.7554 247.783 30.3417 248.132 29.997C248.505 29.6523 248.901 29.365 249.32 29.1352C249.763 28.8824 250.217 28.6756 250.683 28.5147C251.148 28.3539 251.591 28.216 252.01 28.1011C252.942 27.7104 253.932 27.3427 254.98 26.998C256.051 26.6303 257.135 26.3086 258.229 26.0328C259.347 25.757 260.489 25.5847 261.653 25.5157C262.818 25.4238 264.041 25.5617 265.322 25.9294C265.392 26.1592 265.496 26.3775 265.636 26.5843C265.776 26.7912 265.916 26.998 266.055 27.2048C266.218 27.4117 266.358 27.6185 266.475 27.8253C266.591 28.0092 266.661 28.2045 266.684 28.4113C266.917 28.6182 267.104 28.848 267.243 29.1007C267.383 29.3306 267.406 29.6408 267.313 30.0315C267.08 30.2153 266.847 30.3877 266.614 30.5485C266.405 30.6864 266.172 30.8128 265.916 30.9277C265.054 30.7209 264.18 30.652 263.295 30.7209C262.41 30.7898 261.618 30.8473 260.919 30.8933C260.71 30.6864 260.454 30.583 260.151 30.583C259.871 30.583 259.569 30.629 259.242 30.7209C258.94 30.8128 258.625 30.9047 258.299 30.9967C257.996 31.0886 257.705 31.1116 257.426 31.0656C257.193 31.2495 256.902 31.3759 256.552 31.4448C256.226 31.4908 255.865 31.5367 255.469 31.5827C255.446 31.6976 255.469 31.778 255.539 31.824C255.609 31.847 255.621 31.9159 255.574 32.0308C255.714 32.1917 255.888 32.3066 256.098 32.3755C256.331 32.4445 256.564 32.5134 256.797 32.5823C257.053 32.6513 257.274 32.7432 257.461 32.8581C257.647 32.95 257.775 33.1109 257.845 33.3407C258.194 33.3407 258.497 33.4211 258.753 33.582C259.01 33.7429 259.219 33.9382 259.382 34.168C259.545 34.3978 259.662 34.6506 259.732 34.9264C259.825 35.1792 259.871 35.409 259.871 35.6158C259.941 35.7997 260.023 35.8801 260.116 35.8571C260.209 35.8341 260.314 35.8801 260.43 35.995C260.5 36.2938 260.675 36.604 260.954 36.9257C261.234 37.2245 261.455 37.5577 261.618 37.9254C261.665 38.4999 261.7 39.017 261.723 39.4766C261.746 39.9132 261.665 40.3614 261.478 40.821C261.129 41.6713 260.64 42.4296 260.011 43.0961C259.406 43.7625 258.707 44.36 257.915 44.8886C257.146 45.3942 256.319 45.8308 255.434 46.1985C254.549 46.5662 253.687 46.8764 252.849 47.1292C252.756 47.1062 252.662 47.1062 252.569 47.1292C252.476 47.1522 252.453 47.0948 252.499 46.9569C252.313 47.1177 252.103 47.2212 251.871 47.2671C251.661 47.3131 251.428 47.3246 251.172 47.3016C250.916 47.3016 250.648 47.2901 250.368 47.2671C250.112 47.2441 249.867 47.2556 249.634 47.3016C249.471 47.1407 249.32 46.9799 249.18 46.819C249.064 46.6811 248.971 46.4973 248.901 46.2674C248.784 46.2674 248.726 46.21 248.726 46.0951C248.749 45.9802 248.714 45.9227 248.621 45.9227C248.761 45.6929 248.819 45.5665 248.796 45.5435C248.796 45.4976 248.761 45.4631 248.691 45.4401C248.645 45.4172 248.598 45.3942 248.551 45.3712C248.505 45.3252 248.493 45.2678 248.516 45.1988C248.61 45.015 248.645 44.8082 248.621 44.5784C248.598 44.3256 248.575 44.0728 248.551 43.82C248.528 43.5672 248.54 43.3259 248.586 43.0961C248.656 42.8663 248.831 42.6824 249.11 42.5445C249.902 42.6365 250.648 42.6135 251.346 42.4756C252.069 42.3147 252.744 42.0964 253.373 41.8207C254.002 41.5449 254.596 41.2461 255.155 40.9244C255.737 40.6027 256.308 40.3154 256.867 40.0626C256.937 39.8558 257.03 39.6834 257.146 39.5455C257.286 39.4077 257.426 39.2813 257.565 39.1664C257.705 39.0515 257.833 38.9251 257.95 38.7872C258.066 38.6493 258.148 38.4769 258.194 38.2701C258.218 38.1092 258.171 38.0173 258.055 37.9943C257.961 37.9484 257.915 37.8565 257.915 37.7186L257.53 37.6152C257.088 37.3624 256.587 37.1555 256.028 36.9947C255.469 36.8108 254.992 36.6155 254.596 36.4087C254.339 36.5465 254.095 36.581 253.862 36.5121C253.652 36.4431 253.373 36.3742 253.023 36.3052C252.232 36.2593 251.463 36.1789 250.718 36.0639C249.996 35.949 249.297 35.7422 248.621 35.4435C248.575 35.3286 248.516 35.2251 248.447 35.1332C248.377 35.0413 248.249 35.0183 248.062 35.0643C247.923 34.8804 247.783 34.7081 247.643 34.5472C247.503 34.3634 247.375 34.168 247.259 33.9612C247.305 33.6854 247.34 33.4556 247.364 33.2718C247.387 33.0649 247.317 32.8696 247.154 32.6858C247.247 32.387 247.317 32.1457 247.364 31.9619C247.41 31.778 247.41 31.5367 247.364 31.238Z" fill="#4A5568"/>
<path d="M288.031 46.1296C287.682 46.1755 287.344 46.233 287.018 46.3019C286.715 46.3709 286.401 46.4513 286.075 46.5432C285.935 46.5892 285.795 46.6236 285.656 46.6466C285.516 46.6696 285.364 46.7041 285.201 46.75C284.782 46.6581 284.375 46.5892 283.979 46.5432C283.606 46.4973 283.268 46.4743 282.965 46.4743L282.441 46.3364C282.162 46.2445 281.952 46.1755 281.812 46.1296C281.673 46.0606 281.533 46.0147 281.393 45.9917C281.277 45.9457 281.125 45.9112 280.939 45.8883C280.776 45.8653 280.531 45.8308 280.205 45.7848C279.809 45.9457 279.425 46.0261 279.052 46.0261C278.796 46.0261 278.528 45.9917 278.249 45.9227C277.969 45.8308 277.69 45.6699 277.41 45.4401C277.131 45.1873 276.863 44.8541 276.607 44.4405C276.35 44.0038 276.129 43.4523 275.943 42.7858C276.013 42.2573 276.094 41.7977 276.187 41.407C276.281 41.0163 276.374 40.7061 276.467 40.4763L276.746 40.166C277.166 40.0052 277.643 39.9247 278.179 39.9247C278.691 39.9247 279.192 40.0052 279.681 40.166C280.17 40.3269 280.659 40.4993 281.149 40.6831C281.358 40.775 281.51 40.844 281.603 40.8899C281.696 40.9359 281.766 40.9704 281.812 40.9933C281.859 41.0163 281.917 41.0278 281.987 41.0278C282.08 41.0278 282.232 41.0278 282.441 41.0278C282.558 41.0278 282.663 41.0278 282.756 41.0278C282.872 41.0048 282.989 40.9818 283.105 40.9589L283.524 40.9933C283.687 41.0853 283.885 41.1312 284.118 41.1312C284.281 41.1312 284.444 41.1082 284.608 41.0623C284.794 41.0163 284.98 40.9704 285.167 40.9244C285.353 40.8555 285.516 40.8095 285.656 40.7865C285.795 40.7635 285.924 40.7291 286.04 40.6831L286.389 40.3729C286.622 40.2809 286.797 40.1775 286.913 40.0626C287.053 39.9477 287.17 39.8213 287.263 39.6834C287.356 39.5226 287.437 39.3617 287.507 39.2008C287.601 39.04 287.717 38.8676 287.857 38.6838C287.973 38.5459 288.078 38.408 288.171 38.2701C288.288 38.1322 288.404 38.0058 288.521 37.8909V37.5462C288.893 36.6959 289.219 35.8341 289.499 34.9609C289.778 34.0876 290.023 33.2143 290.233 32.341C290.442 31.4678 290.617 30.6175 290.757 29.7902C290.92 28.9629 291.059 28.216 291.176 27.5495C291.106 27.5495 291.036 27.5495 290.966 27.5495C290.896 27.5266 290.838 27.5151 290.792 27.5151C290.093 27.5151 289.522 27.5266 289.08 27.5495C288.637 27.5725 288.229 27.607 287.857 27.653C287.484 27.6989 287.088 27.7679 286.669 27.8598C286.273 27.9287 285.76 28.0206 285.132 28.1356L284.538 28.239C284.095 28.4458 283.664 28.6411 283.245 28.825C282.849 28.9858 282.43 29.0663 281.987 29.0663C281.288 29.0663 280.683 28.7905 280.17 28.239C279.635 27.9172 279.332 27.4576 279.262 26.8601C279.146 26.6533 279.099 26.458 279.122 26.2741C279.029 25.9524 278.971 25.6651 278.948 25.4123C278.948 25.1366 278.948 24.8838 278.948 24.654L278.982 24.0679H279.507C279.646 23.9301 279.739 23.8266 279.786 23.7577C279.856 23.6888 279.903 23.6083 279.926 23.5164L280.031 23.1717L280.38 23.1372C280.869 23.0683 281.37 22.9878 281.882 22.8959C282.395 22.804 282.919 22.7006 283.455 22.5857C283.99 22.4938 284.444 22.4133 284.817 22.3444C285.213 22.2754 285.586 22.2295 285.935 22.2065C286.285 22.1605 286.646 22.1376 287.018 22.1376C287.391 22.1146 287.822 22.1031 288.311 22.1031C288.497 22.1031 288.66 22.1146 288.8 22.1376C288.963 22.1376 289.126 22.1376 289.289 22.1376C289.382 22.0226 289.476 21.9537 289.569 21.9307C289.662 21.9077 289.732 21.8963 289.778 21.8963C289.941 21.9192 290.058 21.9422 290.128 21.9652C290.221 21.9882 290.291 22.0112 290.337 22.0341C291.129 21.8963 291.851 21.8158 292.504 21.7928C293.179 21.7469 293.785 21.7239 294.32 21.7239C294.576 21.7239 294.833 21.7239 295.089 21.7239C295.345 21.7239 295.59 21.7354 295.823 21.7584H297.15H298.094C298.21 21.7354 298.315 21.7239 298.408 21.7239C298.524 21.7239 298.641 21.7239 298.757 21.7239C298.99 21.7239 299.165 21.7239 299.281 21.7239C299.421 21.7239 299.538 21.7354 299.631 21.7584C299.724 21.7584 299.817 21.7699 299.91 21.7928C300.004 21.7928 300.132 21.8043 300.295 21.8273C300.691 21.8963 301.052 21.9537 301.378 21.9997C301.704 22.0456 302.03 22.0686 302.356 22.0686L303.02 22.0341L303.125 22.4478L303.439 22.8959C303.509 23.0338 303.602 23.1602 303.719 23.2751C303.835 23.39 303.963 23.5049 304.103 23.6198C304.382 23.8726 304.65 24.1943 304.907 24.585C305.186 24.9527 305.291 25.4928 305.221 26.2052L304.907 26.6188C304.813 26.6648 304.72 26.7222 304.627 26.7912C304.557 26.8601 304.476 26.9405 304.382 27.0325L304.033 27.3427C303.73 27.3657 303.474 27.3887 303.264 27.4117C303.055 27.4117 302.822 27.4117 302.566 27.4117C302.146 27.4117 301.716 27.4002 301.273 27.3772C300.854 27.3542 300.411 27.3312 299.945 27.3082C299.689 27.2853 299.491 27.2738 299.351 27.2738C299.212 27.2738 299.084 27.2738 298.967 27.2738C298.851 27.2738 298.711 27.2853 298.548 27.3082C298.408 27.3082 298.222 27.3082 297.989 27.3082C297.756 27.3082 297.581 27.3082 297.465 27.3082C297.372 27.3082 297.232 27.3197 297.045 27.3427C296.999 28.0781 296.906 28.7216 296.766 29.2731C296.649 29.8017 296.498 30.3647 296.312 30.9622C295.869 33.2143 295.322 35.3401 294.67 37.3394C294.041 39.3387 293.33 41.1427 292.538 42.7514C291.793 43.5327 291.083 44.2336 290.407 44.8541C289.732 45.4516 288.975 45.8768 288.136 46.1296H288.031Z" fill="#4A5568"/>
<path d="M320.943 36.4087C320.92 36.6844 320.943 36.9487 321.013 37.2015C321.083 37.4543 321.164 37.7071 321.258 37.9599C321.374 38.1897 321.479 38.431 321.572 38.6838C321.665 38.9366 321.735 39.1893 321.782 39.4421C321.828 39.7639 321.828 40.1201 321.782 40.5107C321.735 40.8784 321.653 41.2461 321.537 41.6138C321.421 41.9585 321.269 42.2803 321.083 42.579C320.897 42.8548 320.675 43.0616 320.419 43.1995C320.093 43.6132 319.697 43.9349 319.231 44.1647C318.765 44.3945 318.334 44.6703 317.938 44.992C317.682 45.1529 317.391 45.2678 317.065 45.3367C316.762 45.4057 316.448 45.4746 316.122 45.5435C315.865 45.6814 315.563 45.8308 315.213 45.9917C314.864 46.1296 314.503 46.2674 314.13 46.4053C313.757 46.5202 313.385 46.6122 313.012 46.6811C312.639 46.7271 312.313 46.7386 312.034 46.7156C311.335 46.9684 310.648 47.1292 309.973 47.1982C309.32 47.2901 308.552 47.2441 307.667 47.0603C306.828 47.1752 306.048 47.1407 305.326 46.9569C304.627 46.773 303.998 46.4858 303.439 46.0951C302.903 45.6814 302.426 45.1988 302.007 44.6473C301.611 44.0728 301.285 43.4753 301.028 42.8548C300.842 41.5449 300.889 40.3614 301.168 39.3042C301.448 38.2241 301.844 37.236 302.356 36.3397C302.892 35.4205 303.497 34.5817 304.173 33.8233C304.848 33.042 305.5 32.2836 306.129 31.5482C306.269 31.5942 306.374 31.5942 306.444 31.5482C306.537 31.4793 306.618 31.3988 306.688 31.3069C306.758 31.192 306.828 31.0886 306.898 30.9967C306.991 30.9047 307.096 30.8473 307.212 30.8243C307.375 30.4796 307.608 30.2268 307.911 30.0659C308.237 29.8821 308.493 29.6293 308.68 29.3076C308.889 29.2616 309.064 29.1927 309.204 29.1007C309.344 29.0088 309.472 28.9054 309.588 28.7905C309.728 28.6756 309.868 28.5722 310.007 28.4803C310.147 28.3654 310.31 28.2849 310.497 28.239V27.8598C310.916 27.6759 311.219 27.4691 311.405 27.2393C311.615 26.9865 311.859 26.6878 312.139 26.343C312.348 26.3201 312.511 26.3086 312.628 26.3086C312.768 26.3086 312.966 26.2856 313.222 26.2396C313.408 25.9179 313.571 25.6766 313.711 25.5157C313.874 25.3549 314.107 25.1825 314.41 24.9987C314.689 25.1366 314.992 25.2285 315.318 25.2744C315.667 25.3204 315.97 25.4698 316.226 25.7226C316.25 25.9524 316.32 26.1362 316.436 26.2741C316.553 26.389 316.681 26.5039 316.82 26.6188C316.96 26.7107 317.088 26.8142 317.205 26.9291C317.344 27.044 317.438 27.2048 317.484 27.4117C317.577 27.4346 317.636 27.4231 317.659 27.3772C317.705 27.3312 317.775 27.3197 317.869 27.3427C317.938 27.6644 318.02 27.8828 318.113 27.9977C318.206 28.0896 318.299 28.2849 318.393 28.5837C318.276 28.8135 318.183 29.0548 318.113 29.3076C318.067 29.5374 317.927 29.7097 317.694 29.8246C317.671 29.9855 317.717 30.0774 317.834 30.1004C317.95 30.1004 318.02 30.1579 318.043 30.2728C318.067 30.4796 318.032 30.629 317.938 30.7209C318.497 31.6172 318.998 32.5709 319.441 33.582C319.883 34.5702 320.384 35.5124 320.943 36.4087ZM316.576 39.6834C316.669 39.4306 316.785 39.2238 316.925 39.0629C317.088 38.9021 317.181 38.6608 317.205 38.3391C317.088 38.1552 317.018 38.0173 316.995 37.9254C316.972 37.8105 316.96 37.6381 316.96 37.4083C316.448 36.6959 316.005 35.9376 315.633 35.1332C315.26 34.3059 314.841 33.5361 314.375 32.8236C314.328 32.9156 314.247 33.0075 314.13 33.0994C314.014 33.1913 313.886 33.1684 313.746 33.0305C313.699 33.2143 313.618 33.3522 313.501 33.4441C313.385 33.5131 313.257 33.5475 313.117 33.5475C312.977 33.5246 312.826 33.4901 312.663 33.4441C312.523 33.3752 312.395 33.2948 312.278 33.2028C311.603 33.7314 310.928 34.2485 310.252 34.754C309.577 35.2596 308.971 35.8456 308.435 36.5121C308.342 36.558 308.284 36.581 308.261 36.581C308.237 36.558 308.167 36.5695 308.051 36.6155C307.865 37.0521 307.632 37.4543 307.352 37.822C307.096 38.1667 306.84 38.5229 306.584 38.8906C306.327 39.2583 306.106 39.649 305.92 40.0626C305.733 40.4763 305.629 40.9589 305.605 41.5104C306.001 41.8321 306.467 42.0275 307.003 42.0964C307.539 42.1654 308.086 42.1769 308.645 42.1309C309.227 42.0849 309.786 42.016 310.322 41.9241C310.881 41.8092 311.393 41.7517 311.859 41.7517C312.837 41.5219 313.676 41.2231 314.375 40.8555C315.073 40.4648 315.807 40.0741 316.576 39.6834Z" fill="#4A5568"/>
<path d="M340.963 43.4063C341.009 44.0038 340.939 44.4979 340.753 44.8886C340.567 45.2793 340.31 45.6125 339.984 45.8883C339.658 46.164 339.286 46.3823 338.866 46.5432C338.447 46.7041 338.039 46.8535 337.643 46.9913C337.457 46.8764 337.271 46.7615 337.084 46.6466C336.921 46.5087 336.723 46.4053 336.491 46.3364C336.188 45.7848 335.897 45.3022 335.617 44.8886C335.338 44.452 335.209 43.9579 335.233 43.4063C335.233 43.3833 335.244 43.257 335.268 43.0271C335.314 42.7973 335.361 42.5445 335.407 42.2688C335.477 41.993 335.524 41.7402 335.547 41.5104C335.594 41.2576 335.617 41.1197 335.617 41.0968C335.081 41.1427 334.522 41.2576 333.94 41.4415C333.358 41.6253 332.787 41.8436 332.228 42.0964C331.692 42.3492 331.18 42.602 330.691 42.8548C330.225 43.1076 329.841 43.3259 329.538 43.5097C329.538 43.5787 329.491 43.751 329.398 44.0268C329.305 44.2796 329.188 44.5554 329.049 44.8541C328.909 45.1299 328.758 45.3827 328.595 45.6125C328.431 45.8423 328.268 45.9572 328.105 45.9572C328.129 46.0261 328.164 46.0951 328.21 46.164C328.257 46.233 328.257 46.3249 328.21 46.4398C327.884 46.5317 327.593 46.6466 327.337 46.7845C327.081 46.9454 326.813 47.0718 326.533 47.1637C326.254 47.2786 325.951 47.3361 325.625 47.3361C325.299 47.3361 324.914 47.2212 324.472 46.9913C324.472 46.8535 324.414 46.7386 324.297 46.6466C324.181 46.5317 324.053 46.4398 323.913 46.3709C323.796 46.2789 323.692 46.21 323.598 46.164C323.505 46.0951 323.459 46.0376 323.459 45.9917C323.342 46.0147 323.296 45.9342 323.319 45.7504C323.342 45.5665 323.435 45.5206 323.598 45.6125C323.342 45.2908 323.179 45.015 323.109 44.7852C323.063 44.5324 322.935 44.2221 322.725 43.8545C322.772 43.8085 322.818 43.7281 322.865 43.6132C322.888 43.4983 322.911 43.3948 322.935 43.3029C322.958 43.211 322.993 43.142 323.039 43.0961C323.086 43.0501 323.144 43.0616 323.214 43.1306C323.167 42.9237 323.167 42.7514 323.214 42.6135C323.261 42.4756 323.307 42.3492 323.354 42.2343C323.4 42.1194 323.435 42.0045 323.459 41.8896C323.482 41.7747 323.447 41.6483 323.354 41.5104C323.726 41.0048 323.971 40.4648 324.088 39.8903C324.204 39.2928 324.274 38.7527 324.297 38.2701C324.46 38.1092 324.6 37.8794 324.716 37.5807C324.856 37.2819 324.961 36.9832 325.031 36.6844C325.101 36.3627 325.124 36.0639 325.101 35.7882C325.101 35.4894 325.066 35.2481 324.996 35.0643C325.019 34.9494 325.147 34.9149 325.38 34.9609C325.52 34.2025 325.613 33.3522 325.66 32.41C325.73 31.4448 325.834 30.5371 325.974 29.6868C326.114 28.8135 326.347 28.0551 326.673 27.4117C326.999 26.7452 327.523 26.3086 328.245 26.1017C328.385 26.5843 328.56 27.0095 328.769 27.3772C329.002 27.7449 329.247 28.1011 329.503 28.4458C329.782 28.7675 330.05 29.1007 330.306 29.4455C330.586 29.7902 330.842 30.1808 331.075 30.6175C331.052 31.0541 331.005 31.5597 330.935 32.1342C330.866 32.7087 330.772 33.2948 330.656 33.8923C330.563 34.4898 330.458 35.0643 330.341 35.6158C330.248 36.1674 330.155 36.6385 330.062 37.0291C330.085 37.144 330.143 37.213 330.237 37.236C330.353 37.259 330.376 37.3624 330.306 37.5462C330.866 37.4083 331.448 37.2819 332.053 37.167C332.659 37.0521 333.265 36.9257 333.87 36.7878C334.476 36.65 335.058 36.5006 335.617 36.3397C336.199 36.1559 336.735 35.9376 337.224 35.6848C337.341 34.7885 337.492 33.8923 337.678 32.996C337.865 32.0998 337.888 31.1805 337.748 30.2383C337.865 30.1464 337.958 30.0315 338.028 29.8936C338.098 29.7557 338.214 29.6638 338.377 29.6178C338.261 29.1812 338.214 28.7216 338.237 28.239C338.261 27.7564 338.342 27.2968 338.482 26.8601C338.645 26.4235 338.866 26.0558 339.146 25.757C339.449 25.4353 339.81 25.2285 340.229 25.1366C340.485 25.5042 340.706 25.9064 340.893 26.343C341.079 26.7567 341.265 27.1818 341.452 27.6185C341.661 28.0321 341.871 28.4343 342.081 28.825C342.314 29.1927 342.605 29.5144 342.954 29.7902C343.024 30.4566 343.071 31.146 343.094 31.8585C343.14 32.5709 343.175 33.2948 343.199 34.0301C343.012 34.9034 342.803 35.7537 342.57 36.581C342.36 37.3853 342.209 38.2471 342.116 39.1664C341.953 39.3502 341.824 39.557 341.731 39.7868C341.638 40.0167 341.545 40.258 341.452 40.5107C341.359 40.7406 341.254 40.9704 341.137 41.2002C341.021 41.407 340.881 41.5908 340.718 41.7517C340.811 42.0275 340.823 42.2918 340.753 42.5445C340.706 42.7744 340.776 43.0616 340.963 43.4063Z" fill="#4A5568"/>
<path d="M351.06 40.4763C350.85 40.5222 350.699 40.6486 350.606 40.8555C350.512 41.0393 350.419 41.2346 350.326 41.4415C350.256 41.6483 350.175 41.8436 350.081 42.0275C350.012 42.1883 349.895 42.2688 349.732 42.2688C349.709 42.4526 349.639 42.6135 349.522 42.7514C349.429 42.8893 349.336 43.0386 349.243 43.1995C349.15 43.3374 349.08 43.4983 349.033 43.6821C348.987 43.843 349.01 44.0383 349.103 44.2681C348.917 44.406 348.8 44.6013 348.754 44.8541C348.707 45.1069 348.649 45.3482 348.579 45.578C348.533 45.8078 348.439 46.0032 348.3 46.164C348.16 46.3249 347.904 46.3938 347.531 46.3709C347.461 46.4628 347.449 46.5202 347.496 46.5432C347.543 46.5662 347.578 46.6466 347.601 46.7845C347.345 46.7386 347.147 46.75 347.007 46.819C346.89 46.9109 346.739 46.9684 346.553 46.9913C346.11 46.8535 345.737 46.6122 345.435 46.2674C345.155 45.9227 344.899 45.5435 344.666 45.1299C344.456 44.6933 344.258 44.2566 344.072 43.82C343.909 43.3833 343.746 43.0042 343.583 42.6824C343.653 42.4296 343.664 42.1883 343.618 41.9585C343.571 41.7057 343.49 41.4989 343.373 41.3381C344.515 38.948 345.761 36.3972 347.112 33.6854C348.463 30.9737 349.744 28.2964 350.955 25.6536C351.491 25.8604 352.015 26.1017 352.527 26.3775C353.063 26.6303 353.54 26.9291 353.96 27.2738C354.402 27.6185 354.775 28.0206 355.078 28.4803C355.38 28.9169 355.578 29.411 355.672 29.9625C355.625 30.1004 355.567 30.1579 355.497 30.1349C355.45 30.0889 355.404 30.1004 355.357 30.1694C355.45 30.2843 355.497 30.3647 355.497 30.4107C355.52 30.4566 355.52 30.5026 355.497 30.5485C355.497 30.5945 355.497 30.6634 355.497 30.7554C355.497 30.8243 355.532 30.9277 355.602 31.0656C355.508 31.0426 355.439 31.0541 355.392 31.1001C355.369 31.146 355.299 31.146 355.182 31.1001C355.276 31.3529 355.299 31.5597 355.252 31.7206C355.229 31.8814 355.182 32.0308 355.113 32.1687C355.043 32.2836 354.984 32.4215 354.938 32.5823C354.891 32.7202 354.903 32.9041 354.973 33.1339C354.903 33.1339 354.845 33.1569 354.798 33.2028C354.775 33.2258 354.751 33.2603 354.728 33.3062C354.705 33.3292 354.67 33.3637 354.623 33.4097C354.6 33.4326 354.554 33.4326 354.484 33.4097C354.554 33.9152 354.577 34.4208 354.554 34.9264C354.53 35.432 354.507 35.949 354.484 36.4776C354.484 36.9832 354.495 37.5232 354.519 38.0978C354.542 38.6493 354.623 39.2238 354.763 39.8213C355.602 39.3387 356.265 38.7182 356.755 37.9599C357.267 37.2015 357.675 36.3512 357.977 35.409C358.304 34.4668 358.548 33.4556 358.711 32.3755C358.874 31.2954 359.049 30.1923 359.235 29.0663C359.445 28.8595 359.608 28.6067 359.724 28.3079C359.841 28.0092 359.946 27.6989 360.039 27.3772C360.132 27.0325 360.225 26.6993 360.318 26.3775C360.411 26.0328 360.528 25.7226 360.668 25.4468C361.017 25.4928 361.308 25.6077 361.541 25.7915C361.797 25.9524 362.03 26.1362 362.24 26.343C362.45 26.5269 362.671 26.7107 362.904 26.8946C363.137 27.0555 363.428 27.1589 363.777 27.2048C364.057 27.5955 364.313 27.9747 364.546 28.3424C364.779 28.7101 364.93 29.1007 365 29.5144C364.884 29.6983 364.79 29.9051 364.72 30.1349C364.674 30.3647 364.616 30.5945 364.546 30.8243C364.476 31.0541 364.383 31.2724 364.266 31.4793C364.15 31.6631 363.987 31.824 363.777 31.9619C363.707 32.5594 363.614 33.1109 363.498 33.6165C363.404 34.0991 363.3 34.5817 363.183 35.0643C363.09 35.5469 363.009 36.0525 362.939 36.581C362.869 37.0866 362.845 37.6496 362.869 38.2701C362.682 38.7987 362.484 39.3617 362.275 39.9592C362.065 40.5567 361.902 41.0968 361.786 41.5794C361.413 41.8781 361.122 42.2343 360.912 42.648C360.703 43.0616 360.481 43.4753 360.248 43.8889C360.155 43.9809 360.097 44.0038 360.074 43.9579C360.05 43.9119 359.969 43.8774 359.829 43.8545C359.852 43.9464 359.852 44.0153 359.829 44.0613C359.806 44.1072 359.771 44.1532 359.724 44.1992C359.701 44.2221 359.678 44.2681 359.654 44.3371C359.654 44.406 359.678 44.4979 359.724 44.6128C359.398 44.7507 359.107 44.946 358.851 45.1988C358.595 45.4516 358.315 45.6814 358.012 45.8883C357.733 46.0951 357.383 46.233 356.964 46.3019C356.568 46.3709 356.044 46.2904 355.392 46.0606C354.437 45.3712 353.587 44.5784 352.842 43.6821C352.119 42.7858 351.526 41.7172 351.06 40.4763Z" fill="#4A5568"/>
</svg>
